<svg xmlns="http://www.w3.org/2000/svg" viewBox="0 0 46.44 45.72"><title>Ресурс 1</title><g id="Слой_2" data-name="Слой 2"><g id="Слой_1-2" data-name="Слой 1"><path d="M23.46,23.08,45.69,12.14v22L23.46,45Z" fill="#fff"/><path d="M.74,34.09v-22l22.72,11V45Z" fill="#fff"/><path d="M23.46,23.08.74,12.08,23.22.75,45.69,12.14Z" fill="#fff"/><path d="M30.26,4.31,8.26,15.7v6.15L12.77,24V17.84L34.61,6.51Z" fill="#78bf3d" opacity="0.3"/><path d="M28.9,25.76l11.35-5.58V31.37L28.9,36.92Z" fill="#78bf3d" opacity="0.3"/><path d="M6,42H4.7V40.69a.84.84,0,0,0-1.67,0V42H1.76a.84.84,0,0,0-.83.84.83.83,0,0,0,.83.83H3v1.26a.84.84,0,1,0,1.67,0V43.62H6a.83.83,0,0,0,.83-.83A.84.84,0,0,0,6,42Z" fill="#78bf3d"/><path d="M44.77,2.75A1.74,1.74,0,1,1,43,1a1.72,1.72,0,0,1,1.73,1.73Z" fill="#78bf3d" opacity="0.3"/><path d="M43,5.32a2.57,2.57,0,1,1,2.57-2.57A2.58,2.58,0,0,1,43,5.32Zm0-3.46a.89.89,0,1,0,.9.89.89.89,0,0,0-.9-.89Z" fill="#78bf3d"/><path d="M12.45,24.66,7.94,22.52a.73.73,0,0,1-.42-.67V15.7a.75.75,0,0,1,.4-.66l22-11.39a.74.74,0,0,1,.68,0L35,5.85a.75.75,0,0,1,0,1.32L13.52,18.29V24c.06.41-.7.91-1.07.67ZM9,21.38l3,1.43v-5a.74.74,0,0,1,.4-.66L33,6.52,30.27,5.15,9,16.15Z" fill="#78bf3d"/><path d="M28.16,36.92V25.76a.73.73,0,0,1,.42-.66l11.34-5.58a.75.75,0,0,1,1.07.66V31.37a.73.73,0,0,1-.42.67L29.23,37.59a.87.87,0,0,1-1.07-.67Zm1.49-10.7v9.51l9.85-4.82V21.38Z" fill="#78bf3d"/><path d="M46,11.48,23.55.09a.72.72,0,0,0-.67,0L.41,11.42a.73.73,0,0,0-.41.66v22a.75.75,0,0,0,.42.67L23.13,45.63a.74.74,0,0,0,.65,0L46,34.75a.73.73,0,0,0,.42-.66v-22a.76.76,0,0,0-.41-.66ZM23.22,1.58,44,12.13,23.45,22.26l-21-10.19ZM1.49,13.26,22.71,23.55V43.78L1.49,33.62ZM24.2,43.77V23.55L45,13.34V33.62Z" fill="#1b2a37"/><rect width="46.44" height="45.71" fill="none"/></g></g></svg>