<svg xmlns="http://www.w3.org/2000/svg" viewBox="0 0 42.53 48.61"><title>Ресурс 2</title><g id="Слой_2" data-name="Слой 2"><g id="Слой_1-2" data-name="Слой 1"><path d="M39.51,44.63H38.45V43.56a.79.79,0,0,0-1.57,0v1.07H35.82a.79.79,0,0,0,0,1.57h1.06v1.07a.79.79,0,0,0,1.57,0V46.2h1.06a.79.79,0,1,0,0-1.57Z" fill="#78bf3d"/><path d="M7.65,11A1.84,1.84,0,1,1,5.81,9.13,1.84,1.84,0,0,1,7.65,11Z" fill="#fff"/><path d="M5.81,13.6A2.63,2.63,0,1,1,8.43,11,2.62,2.62,0,0,1,5.81,13.6Zm0-3.68A1.06,1.06,0,1,0,6.86,11,1.05,1.05,0,0,0,5.81,9.92Z" fill="#78bf3d"/><path d="M41.62,38.49H11.79V31.7c0-7.77,6-14.07,13.37-14.07h3.11c7.4,0,13.38,6.3,13.38,14.07v6.79Z" fill="#fff"/><path d="M18.94,38.25a.78.78,0,0,1-.78-.78V34.13a.79.79,0,1,1,1.57,0v3.34a.78.78,0,0,1-.79.78Z" fill="#1b2a37"/><path d="M29.61,29.63l-2.91,4-2.91-4V15.8h5.82Z" fill="#fff"/><path d="M36.1,10.74a9.68,9.68,0,0,1-9.4,10,9.68,9.68,0,0,1-9.39-10c0-5.5,4.2-10,9.39-10a9.69,9.69,0,0,1,9.4,10Z" fill="#fff"/><path d="M34,18.16a11,11,0,0,0,2.84-7.42C36.88,4.82,32.32,0,26.7,0S16.52,4.82,16.52,10.74a11,11,0,0,0,2.85,7.43A14.9,14.9,0,0,0,11,31.7v6.79a.79.79,0,0,0,.79.78H41.65a.78.78,0,0,0,.78-.78V31.7A14.89,14.89,0,0,0,34,18.16ZM18.09,10.74A8.91,8.91,0,0,1,26.7,1.57a8.92,8.92,0,0,1,8.62,9.17,8.92,8.92,0,0,1-8.62,9.17c-4.75,0-8.61-4.12-8.61-9.17Zm10.74,10.5v8.13L26.7,32.3l-2.12-2.93V21.24a9.84,9.84,0,0,0,2.12.24,10,10,0,0,0,2.13-.24Zm12,16.47H35.25V34.13a.79.79,0,0,0-.79-.79.78.78,0,0,0-.78.79v3.58H12.57v-6a13.31,13.31,0,0,1,8.06-12.37A10,10,0,0,0,23,20.73v8.9a.79.79,0,0,0,.15.46l2.91,4a.79.79,0,0,0,.63.32.81.81,0,0,0,.64-.32l2.91-4a.87.87,0,0,0,.15-.46v-8.9a9.77,9.77,0,0,0,2.39-1.41A13.3,13.3,0,0,1,40.87,31.7Z" fill="#1b2a37"/><path d="M15.32,26.9a13.62,13.62,0,0,1-4.65-4.21C8.83,25.12,5.15,28.11.9,28.48a22.76,22.76,0,0,0,3.49,13,22.83,22.83,0,0,0,6.18,6.34l.1,0,.09,0a22.26,22.26,0,0,0,6.33-6.49A23.07,23.07,0,0,0,20.58,28.5a12.15,12.15,0,0,1-5.26-1.6Z" fill="#78bf3d" opacity="0.3"/><path d="M10.57,48.61a.79.79,0,0,1-.44-.14,23.48,23.48,0,0,1-6.4-6.56A23.37,23.37,0,0,1,.12,28.44a.78.78,0,0,1,.72-.74c4-.35,7.45-3.17,9.2-5.48a.86.86,0,0,1,.65-.31.78.78,0,0,1,.63.34,13.11,13.11,0,0,0,4.38,4h0a11.25,11.25,0,0,0,4.9,1.5.78.78,0,0,1,.75.77,23.67,23.67,0,0,1-3.61,13.27,23,23,0,0,1-6.54,6.71.76.76,0,0,1-.54.13ZM1.67,29.18a21.29,21.29,0,0,0,9,17.75,21.44,21.44,0,0,0,5.76-6,22.18,22.18,0,0,0,3.37-11.7,13.16,13.16,0,0,1-4.86-1.64A14.73,14.73,0,0,1,10.64,24a15.74,15.74,0,0,1-9,5.21Z" fill="#78bf3d"/><rect width="42.53" height="48.61" fill="none"/><path d="M14.92,35.26A4.19,4.19,0,1,1,10.73,31a4.22,4.22,0,0,1,4.19,4.26Z" fill="#fff"/><path d="M10.73,40.3a5,5,0,1,1,5-5,5,5,0,0,1-5,5Zm0-8.52a3.48,3.48,0,1,0,3.41,3.48,3.45,3.45,0,0,0-3.41-3.48Z" fill="#78bf3d"/></g></g></svg>