<svg xmlns="http://www.w3.org/2000/svg" viewBox="0 0 52.43 43.72"><title>Ресурс 1</title><g id="Слой_2" data-name="Слой 2"><g id="Слой_1-2" data-name="Слой 1"><path d="M2.75,15.6A.78.78,0,0,1,2,14.82v-4a.78.78,0,0,1,1.56,0v4a.78.78,0,0,1-.78.78Z" fill="#78bf3d"/><path d="M4.73,13.62H.78a.79.79,0,0,1,0-1.57h4a.79.79,0,0,1,0,1.57Z" fill="#78bf3d"/><path d="M49.68,36.41a.77.77,0,0,1-.78-.78v-4a.78.78,0,0,1,1.56,0v4a.78.78,0,0,1-.78.78Z" fill="#78bf3d"/><path d="M51.65,34.43H47.7a.78.78,0,0,1,0-1.56h3.95a.78.78,0,0,1,0,1.56Z" fill="#78bf3d"/><path d="M42,.78H10.37A1.56,1.56,0,0,0,8.81,2.34v39a1.56,1.56,0,0,0,1.56,1.56H42a1.56,1.56,0,0,0,1.56-1.56v-39A1.56,1.56,0,0,0,42,.78Z" fill="#fff"/><path d="M42,43.72H10.37A2.34,2.34,0,0,1,8,41.38v-39A2.34,2.34,0,0,1,10.37,0H42a2.34,2.34,0,0,1,2.34,2.34v39A2.34,2.34,0,0,1,42,43.72ZM10.37,1.56a.78.78,0,0,0-.78.78v39a.78.78,0,0,0,.78.78H42a.78.78,0,0,0,.78-.78v-39A.78.78,0,0,0,42,1.56Z" fill="#1b2a37"/><rect x="13.94" y="4.17" width="9.07" height="8.39" fill="#78bf3d" opacity="0.3"/><path d="M23,13.35H13.94a.78.78,0,0,1-.78-.78V4.17a.78.78,0,0,1,.78-.78H23a.78.78,0,0,1,.78.78v8.4a.78.78,0,0,1-.78.78Zm-8.29-1.56h7.51V5H14.72Z" fill="#78bf3d"/><path d="M18.19,10.9a.8.8,0,0,1-.43-.13l-1.41-.93a.78.78,0,0,1-.22-1.08.79.79,0,0,1,1.08-.23l.88.59,2.38-2.38a.78.78,0,0,1,1.1,1.11l-2.82,2.82a.79.79,0,0,1-.56.23Z" fill="#1b2a37"/><path d="M38.42,7.57H27.53a.78.78,0,0,1,0-1.56H38.42a.78.78,0,1,1,0,1.56Z" fill="#1b2a37"/><path d="M38.42,11.14H27.53a.78.78,0,1,1,0-1.56H38.42a.78.78,0,1,1,0,1.56Z" fill="#1b2a37"/><rect x="13.94" y="17.66" width="9.07" height="8.39" fill="#78bf3d" opacity="0.3"/><path d="M23,26.84H13.94a.78.78,0,0,1-.78-.78v-8.4a.78.78,0,0,1,.78-.78H23a.78.78,0,0,1,.78.78v8.4a.78.78,0,0,1-.78.78Zm-8.29-1.56h7.51V18.45H14.72Z" fill="#78bf3d"/><path d="M18.19,24.39a.8.8,0,0,1-.43-.13l-1.41-.93a.78.78,0,0,1-.22-1.08A.79.79,0,0,1,17.21,22l.88.59,2.38-2.38a.78.78,0,0,1,1.1,1.11l-2.82,2.82a.79.79,0,0,1-.56.23Z" fill="#1b2a37"/><path d="M38.42,21.06H27.53a.78.78,0,1,1,0-1.56H38.42a.78.78,0,1,1,0,1.56Z" fill="#1b2a37"/><path d="M38.42,24.63H27.53a.79.79,0,0,1,0-1.57H38.42a.79.79,0,0,1,0,1.57Z" fill="#1b2a37"/><rect x="13.94" y="31.15" width="9.07" height="8.39" fill="#78bf3d" opacity="0.3"/><path d="M23,40.33H13.94a.78.78,0,0,1-.78-.78v-8.4a.78.78,0,0,1,.78-.78H23a.78.78,0,0,1,.78.78v8.4a.78.78,0,0,1-.78.78Zm-8.29-1.56h7.51V31.93H14.72Z" fill="#78bf3d"/><path d="M18.19,37.88a.8.8,0,0,1-.43-.13l-1.41-.93a.78.78,0,0,1-.22-1.08.79.79,0,0,1,1.08-.23l.88.59,2.38-2.38a.78.78,0,0,1,1.1,1.11l-2.82,2.82a.79.79,0,0,1-.56.23Z" fill="#1b2a37"/><path d="M38.42,34.55H27.53a.78.78,0,0,1,0-1.56H38.42a.78.78,0,1,1,0,1.56Z" fill="#1b2a37"/><path d="M38.42,38.12H27.53a.79.79,0,0,1,0-1.57H38.42a.79.79,0,0,1,0,1.57Z" fill="#1b2a37"/></g></g></svg>