<svg xmlns="http://www.w3.org/2000/svg" viewBox="0 0 49.09 45.98"><title>Ресурс 1</title><g id="Слой_2" data-name="Слой 2"><g id="Слой_1-2" data-name="Слой 1"><path d="M42.43,7.1H9.5a2,2,0,0,0-2,2v7H44.43v-7a2,2,0,0,0-2-2Z" fill="#fff"/><path d="M7.5,16.07V39.43a2,2,0,0,0,2,2H42.43a2,2,0,0,0,2-2V16.07Z" fill="#fff"/><path d="M42.43,6.37H40.22V3.71a.74.74,0,0,0-1.47,0V6.37H31.21V3.71a.74.74,0,0,0-1.48,0V6.37H22.2V3.71a.74.74,0,0,0-1.48,0V6.37H13.18V3.71a.74.74,0,0,0-1.47,0V6.37H9.5A2.74,2.74,0,0,0,6.76,9.1V39.43A2.74,2.74,0,0,0,9.5,42.16H42.43a2.74,2.74,0,0,0,2.74-2.73V9.1a2.74,2.74,0,0,0-2.74-2.73Zm1.26,33.06a1.27,1.27,0,0,1-1.26,1.26H9.5a1.27,1.27,0,0,1-1.26-1.26V16.81H43.69Zm0-24.1H8.24V9.1A1.26,1.26,0,0,1,9.5,7.84h2.21v2.57a.74.74,0,0,0,1.47,0V7.84h7.54v2.57a.74.74,0,0,0,1.48,0V7.84h7.53v2.57a.74.74,0,0,0,1.48,0V7.84h7.54v2.57a.74.74,0,0,0,1.47,0V7.84h2.21A1.26,1.26,0,0,1,43.69,9.1Z" fill="#1b2a37"/><rect x="22.89" y="19.8" width="6.15" height="6.15" fill="#78bf3d" opacity="0.3"/><path d="M29.07,26.66H22.92a.74.74,0,0,1-.74-.73V19.77a.74.74,0,0,1,.74-.74h6.15a.74.74,0,0,1,.74.74v6.16a.74.74,0,0,1-.74.73Zm-5.41-1.47h4.68V20.51H23.66Z" fill="#78bf3d"/><rect x="33.8" y="19.8" width="6.15" height="6.15" fill="#78bf3d" opacity="0.3"/><path d="M40,26.69H33.8a.74.74,0,0,1-.74-.73V19.8a.74.74,0,0,1,.74-.73H40a.74.74,0,0,1,.74.73V26a.74.74,0,0,1-.74.73Zm-5.42-1.47h4.68V20.54H34.53Z" fill="#78bf3d"/><rect x="11.98" y="19.8" width="6.15" height="6.15" fill="#78bf3d" opacity="0.3"/><path d="M18.17,26.66H12a.74.74,0,0,1-.74-.73V19.77A.74.74,0,0,1,12,19h6.16a.74.74,0,0,1,.73.74v6.16a.73.73,0,0,1-.73.73Zm-5.42-1.47h4.68V20.51H12.75Z" fill="#78bf3d"/><rect x="22.89" y="30.71" width="6.15" height="6.15" fill="#78bf3d" opacity="0.3"/><path d="M29,37.6H22.89a.74.74,0,0,1-.74-.73V30.71a.74.74,0,0,1,.74-.74H29a.74.74,0,0,1,.74.74v6.16a.74.74,0,0,1-.74.73Zm-5.41-1.47h4.68V31.45H23.63Z" fill="#78bf3d"/><rect x="33.8" y="30.71" width="6.15" height="6.15" fill="#78bf3d" opacity="0.3"/><path d="M40,37.6H33.8a.74.74,0,0,1-.74-.73V30.71A.74.74,0,0,1,33.8,30H40a.74.74,0,0,1,.74.74v6.16a.74.74,0,0,1-.74.73Zm-5.42-1.47h4.68V31.45H34.53Z" fill="#78bf3d"/><rect x="11.98" y="30.71" width="6.15" height="6.15" fill="#78bf3d" opacity="0.3"/><path d="M18.13,37.6H12a.74.74,0,0,1-.74-.73V30.71A.74.74,0,0,1,12,30h6.15a.74.74,0,0,1,.74.74v6.16a.74.74,0,0,1-.74.73Zm-5.41-1.47H17.4V31.45H12.72Z" fill="#78bf3d"/><path d="M5,42.24H3.74V41a.83.83,0,1,0-1.65,0v1.24H.83a.83.83,0,1,0,0,1.66H2.09v1.25a.83.83,0,1,0,1.65,0V43.9H5a.83.83,0,1,0,0-1.66Z" fill="#78bf3d"/><path d="M48.26,2.54A1.73,1.73,0,1,1,46.54.83a1.72,1.72,0,0,1,1.72,1.71Z" fill="#78bf3d" opacity="0.3"/><path d="M46.54,5.09a2.55,2.55,0,1,1,2.55-2.55,2.56,2.56,0,0,1-2.55,2.55Zm0-3.43a.89.89,0,1,0,.89.88.89.89,0,0,0-.89-.88Z" fill="#78bf3d"/></g></g></svg>