<?xml version="1.0" encoding="UTF-8"?>
<!DOCTYPE svg PUBLIC "-//W3C//DTD SVG 1.1//EN" "http://www.w3.org/Graphics/SVG/1.1/DTD/svg11.dtd">
<!-- Creator: CorelDRAW 2018 -->
<svg xmlns="http://www.w3.org/2000/svg" xml:space="preserve" width="70.214mm" height="15.2296mm" version="1.1" style="shape-rendering:geometricPrecision; text-rendering:geometricPrecision; image-rendering:optimizeQuality; fill-rule:evenodd; clip-rule:evenodd"
viewBox="0 0 7021.36 1522.95"
 xmlns:xlink="http://www.w3.org/1999/xlink">
 <defs>
  <style type="text/css">
   <![CDATA[
    .fil0 {fill:#69B500;fill-rule:nonzero}
   ]]>
  </style>
 </defs>
 <g id="Layer_x0020_1">
  <metadata id="CorelCorpID_0Corel-Layer"/>
  <path class="fil0" d="M56.62 444.6c-26.89,0 -48.68,-21.79 -48.68,-48.68 0,-26.87 21.79,-48.66 48.68,-48.66l186.89 0 0 -134.5c0,-58.55 23.95,-111.8 62.45,-150.3 38.51,-38.5 91.75,-62.46 150.31,-62.46l44.6 0c58.55,0 111.8,23.96 150.3,62.46 38.5,38.5 62.46,91.75 62.46,150.3l0 134.5 194.81 0c26.88,0 48.68,21.79 48.68,48.66 0,26.89 -21.8,48.68 -48.68,48.68l-851.82 0zm1452.37 950.27c15.13,-7.32 24.17,-20.23 24.17,-37.54 0,-28.27 -23.44,-44.11 -62.99,-44.11l-79.58 0 0 170.6 84.22 0c43.21,0 66.4,-18.28 66.4,-48.01 0,-20.72 -11.47,-34.85 -32.22,-40.94zm-79.1 -52.4l36.87 0c17.08,0 26.12,7.31 26.12,20.71 0,13.65 -9.04,20.72 -26.12,20.72l-36.87 0 0 -41.43zm43.46 112.1l-43.46 0 0 -43.13 43.46 0c18.31,0 27.82,6.82 27.82,21.2 0,14.87 -9.51,21.93 -27.82,21.93zm99.1 29.25l37.36 0 81.54 -110.89 0 110.89 39.05 0 0 -170.6 -37.1 0 -81.54 111.13 0 -111.13 -39.31 0 0 170.6zm321.12 -170.6l-120.65 0 0 170.6 39.35 0 -0.24 -138.43 81.29 0 0.25 -32.17zm88.29 173.52c53.71,0 93.5,-37.28 93.5,-88.22 0,-50.93 -39.79,-88.22 -93.5,-88.22 -53.95,0 -93.5,37.53 -93.5,88.22 0,50.69 39.55,88.22 93.5,88.22zm0 -33.63c-30.51,0 -53.46,-22.18 -53.46,-54.59 0,-32.41 22.95,-54.59 53.46,-54.59 30.52,0 53.46,22.18 53.46,54.59 0,32.41 -22.94,54.59 -53.46,54.59zm252.18 -139.89l-148.18 0 0 32.17 54.44 0 0 138.43 39.06 0 0 -138.43 54.68 0 0 -32.17zm104 173.52c53.71,0 93.5,-37.28 93.5,-88.22 0,-50.93 -39.79,-88.22 -93.5,-88.22 -53.95,0 -93.5,37.53 -93.5,88.22 0,50.69 39.55,88.22 93.5,88.22zm0 -33.63c-30.51,0 -53.46,-22.18 -53.46,-54.59 0,-32.41 22.95,-54.59 53.46,-54.59 30.52,0 53.46,22.18 53.46,54.59 0,32.41 -22.94,54.59 -53.46,54.59zm242.41 -58.24c15.14,-7.32 24.17,-20.23 24.17,-37.54 0,-28.27 -23.44,-44.11 -62.99,-44.11l-79.58 0 0 170.6 84.22 0c43.22,0 66.4,-18.28 66.4,-48.01 0,-20.72 -11.46,-34.85 -32.22,-40.94zm-79.09 -52.4l36.86 0c17.09,0 26.12,7.31 26.12,20.71 0,13.65 -9.03,20.72 -26.12,20.72l-36.86 0 0 -41.43zm43.45 112.1l-43.45 0 0 -43.13 43.45 0c18.31,0 27.83,6.82 27.83,21.2 0,14.87 -9.52,21.93 -27.83,21.93zm120.14 -141.35l-2.43 69.22c-1.71,43.62 -6.84,68.97 -26.86,68.97 -2.44,0 -4.63,-0.25 -7.08,-0.98l-2.44 33.39c7.32,1.71 13.67,2.68 19.53,2.68 40.08,0 49.59,-38.51 51.8,-105.53l1.22 -35.58 58.5 0 0 138.43 39.07 0 0 -170.6 -131.31 0zm213.32 138.92l0 -39.48 79.35 0 0 -30.71 -79.35 0 0 -37.04 89.85 0 0 -31.69 -129.15 0 0 170.6 132.31 0 0 -31.68 -93.01 0zm242.17 -138.92l0 67.27 -77.63 0 0 -67.27 -39.54 0 0 170.6 39.54 0 0 -69.94 77.63 0 0 69.94 39.55 0 0 -170.6 -39.55 0zm199.45 0l0 67.27 -77.63 0 0 -67.27 -39.55 0 0 170.6 39.55 0 0 -69.94 77.63 0 0 69.94 39.55 0 0 -170.6 -39.55 0zm145.02 0c-45.17,0 -73.73,23.89 -73.73,63.61 0,26.81 12.93,46.31 35.88,55.57l-35.64 51.42 41.74 0 30.27 -45.33 36.14 0 0 45.33 39.06 0 0 -170.6 -73.72 0zm0.97 32.17l33.69 0 0 61.91 -34.66 0c-22.22,0 -33.7,-11.22 -33.7,-30.96 0,-20.47 12.21,-30.95 34.67,-30.95zm300.03 -32.17l-46.87 91.64 -45.41 -91.64 -42.24 0 67.38 125.27 -1.46 1.95c-6.6,10.24 -14.16,14.62 -23.93,14.62 -5.13,0 -10.74,-1.22 -17.09,-3.17l-9.52 29.98c9.52,3.9 18.8,5.85 27.83,5.85 22.95,0 43.21,-13.16 57.37,-39.48l72.75 -135.02 -38.81 0zm57.6 0l0 170.6 39.31 0 0 -138.43 77.14 0 0 138.43 39.31 0 0 -170.6 -155.76 0zm329.08 170.6l41.5 0 -76.41 -170.6 -39.05 0 -76.17 170.6 40.52 0 15.14 -36.56 79.33 0 15.14 36.56zm-81.78 -66.53l27.1 -65.32 27.09 65.32 -54.19 0zm256.57 66.53l44.92 0 -57.62 -88.22 55.91 -82.38 -41.74 0 -44.93 68.97 -28.32 0 0 -68.97 -39.29 0 0 170.6 39.29 0 0 -68.73 27.35 0 44.43 68.73zm144.27 2.92c53.71,0 93.5,-37.28 93.5,-88.22 0,-50.93 -39.79,-88.22 -93.5,-88.22 -53.95,0 -93.5,37.53 -93.5,88.22 0,50.69 39.55,88.22 93.5,88.22zm0 -33.63c-30.51,0 -53.46,-22.18 -53.46,-54.59 0,-32.41 22.95,-54.59 53.46,-54.59 30.52,0 53.46,22.18 53.46,54.59 0,32.41 -22.94,54.59 -53.46,54.59zm242.41 -58.24c15.14,-7.32 24.17,-20.23 24.17,-37.54 0,-28.27 -23.44,-44.11 -62.99,-44.11l-79.58 0 0 170.6 84.22 0c43.22,0 66.4,-18.28 66.4,-48.01 0,-20.72 -11.46,-34.85 -32.22,-40.94zm-79.09 -52.4l36.86 0c17.09,0 26.12,7.31 26.12,20.71 0,13.65 -9.03,20.72 -26.12,20.72l-36.86 0 0 -41.43zm43.45 112.1l-43.45 0 0 -43.13 43.45 0c18.31,0 27.83,6.82 27.83,21.2 0,14.87 -9.52,21.93 -27.83,21.93zm209.69 29.25l44.93 0 -57.62 -88.22 55.91 -82.38 -41.74 0 -44.93 68.97 -28.32 0 0 -68.97 -39.29 0 0 170.6 39.29 0 0 -68.73 27.35 0 44.42 68.73zm63.48 0l37.36 0 81.53 -110.89 0 110.89 39.06 0 0 -170.6 -37.1 0 -81.54 111.13 0 -111.13 -39.31 0 0 170.6zm400.13 -170.6l-148.18 0 0 32.17 54.43 0 0 138.43 39.07 0 0 -138.43 54.68 0 0 -32.17zm147.2 170.6l41.5 0 -76.41 -170.6 -39.06 0 -76.17 170.6 40.53 0 15.14 -36.56 79.33 0 15.14 36.56zm-81.78 -66.53l27.1 -65.32 27.09 65.32 -54.19 0zm254.37 34.85l0 -39.48 79.34 0 0 -30.71 -79.34 0 0 -37.04 89.84 0 0 -31.69 -129.15 0 0 170.6 132.32 0 0 -31.68 -93.01 0zm255.6 -138.92l-148.18 0 0 32.17 54.43 0 0 138.43 39.07 0 0 -138.43 54.68 0 0 -32.17zm24.9 170.6l37.35 0 81.54 -110.89 0 110.89 39.05 0 0 -170.6 -37.1 0 -81.54 111.13 0 -111.13 -39.3 0 0 170.6zm311.01 0l44.93 0 -57.62 -88.22 55.9 -82.38 -41.74 0 -44.92 68.97 -28.32 0 0 -68.97 -39.3 0 0 170.6 39.3 0 0 -68.73 27.35 0 44.42 68.73zm102.79 -31.68l0 -39.48 79.34 0 0 -30.71 -79.34 0 0 -37.04 89.84 0 0 -31.69 -129.15 0 0 170.6 132.31 0 0 -31.68 -93 0zm255.6 -138.92l-148.18 0 0 32.17 54.43 0 0 138.43 39.07 0 0 -138.43 54.68 0 0 -32.17zm135.48 170.6l44.92 0 -57.61 -88.22 55.9 -82.38 -41.74 0 -44.93 68.97 -28.31 0 0 -68.97 -39.3 0 0 170.6 39.3 0 0 -68.73 27.34 0 44.43 68.73zm63.47 0l37.36 0 81.54 -110.89 0 110.89 39.05 0 0 -170.6 -37.1 0 -81.54 111.13 0 -111.13 -39.31 0 0 170.6zm-5232.34 -541.51l211.41 -377.89 0 -19.89 -390.42 0 0 117.86 191.53 0 -210.68 377.89 0 19.89 411.78 0 0 -117.86 -213.62 0zm496.12 53.04l203.31 0 30.2 64.82 128.91 0 0 -19.15 -232.77 -503.12 -56.72 0 -232.04 503.12 0 19.15 128.91 0 30.2 -64.82zm42.72 -112.71l58.2 -135.54 59.66 135.54 -117.86 0zm3223.12 -223.93c55.25,0 94.29,23.57 112.7,75.87l129.65 0c-19.89,-137.75 -135.54,-195.94 -242.35,-195.94 -131.12,0 -263.72,88.39 -264.45,263.71 0.73,175.32 133.33,263.71 264.45,262.98 109.76,0 225.41,-57.46 244.56,-203.31l-129.65 0c-13.99,55.24 -58.93,83.24 -114.91,83.24 -58.2,-0.74 -102.39,-36.1 -120.81,-86.19l167.22 0 0 -111.23 -169.43 0c16.94,-54.51 63.35,-89.13 123.02,-89.13zm941.77 -115.65l-47.14 0 -205.52 223.93 -201.84 -223.93 -48.62 0 0 517.11 134.81 0 0 -229.83 109.02 114.92 14.73 0 109.76 -114.92 0 229.83 134.8 0 0 -517.11zm729.64 260.03c0,-356.53 -528.91,-356.53 -528.91,0 0,357.26 528.91,357.26 528.91,0zm-393.37 0c0,-185.63 258.56,-185.63 258.56,0 0,187.1 -258.56,187.1 -258.56,0zm-3717.76 257.08l134.81 0 0 -515.64 -428.72 0 0 515.64 134.8 0 0 -394.1 159.11 0 0 394.1zm462.24 -64.82l203.31 0 30.2 64.82 128.91 0 0 -19.15 -232.77 -503.12 -56.72 0 -232.04 503.12 0 19.15 128.91 0 30.2 -64.82zm42.72 -112.71l58.2 -135.54 59.66 135.54 -117.86 0zm489.5 177.53l134.06 0 0 -196.68c16.95,0 33.15,0 50.83,-2.95l113.44 199.63 146.59 0 0 -20.63 -139.96 -226.88c102.39,-65.56 99.45,-162.79 99.45,-268.13l-135.54 0c0,96.5 6.63,195.21 -125.23,195.21l-9.58 0 0 -195.21 -134.06 0 0 515.64zm734.78 -180.47l-81.02 166.47 0 14 142.16 0 244.57 -495.75 0 -19.89 -142.91 0 -88.4 190.05 -3.68 0 -97.23 -190.05 -147.33 0 0 19.89 173.84 315.28zm-4590.78 -305.93l463.95 0 387.86 0c26.89,0 48.68,21.79 48.68,48.68 0,13.57 -5.57,25.85 -14.53,34.7l-768.46 768.46 250.19 0 449.7 -449.7c19.02,-19 49.83,-19 68.85,0 9.49,9.51 14.25,21.96 14.25,34.41l0 463.95c0,26.88 -21.79,48.68 -48.68,48.68l-463.95 0 -387.86 0c-12.47,0 -24.91,-4.75 -34.42,-14.26 -19.01,-19 -19.01,-49.83 0,-68.83l768.73 -768.73 -250.21 0 -449.7 449.69c-19,19.01 -49.82,19.01 -68.82,0 -9.52,-9.51 -14.26,-21.97 -14.26,-34.42l0 -463.95c0,-26.89 21.79,-48.68 48.68,-48.68zm505.37 851.84l297.77 0 0 -297.79 -297.77 297.79zm-158.93 -754.48l-297.78 0 0 297.76 297.78 -297.76zm-59.28 -323.88l285.45 0 0 -134.5c0,-33.05 -13.59,-63.17 -35.42,-85 -21.83,-21.83 -51.95,-35.42 -85,-35.42l-44.6 0c-33.06,0 -63.18,13.59 -85.01,35.42 -21.83,21.83 -35.42,51.95 -35.42,85l0 134.5z"/>
 </g>
</svg>
